/* XPM */
static char * mario_player1_xpm[] = {
"80 80 136 2",
"  	c None",
". 	c #D50000",
"+ 	c #D40000",
"@ 	c #DA1413",
"# 	c #E03408",
"$ 	c #E34502",
"% 	c #E44502",
"& 	c #DB1413",
"* 	c #E43935",
"= 	c #F69317",
"- 	c #FEC107",
"; 	c #FFC107",
"> 	c #E53935",
", 	c #F69316",
"' 	c #FEC006",
") 	c #E53A36",
"! 	c #E43A36",
"~ 	c #E53A35",
"{ 	c #E43A35",
"] 	c #FFFFFF",
"^ 	c #FEFEFE",
"/ 	c #FFD65B",
"( 	c #FFEB3B",
"_ 	c #FEEB3A",
": 	c #F40057",
"< 	c #F50057",
"[ 	c #DE1E1C",
"} 	c #000000",
"| 	c #990036",
"1 	c #ED1A47",
"2 	c #E47373",
"3 	c #E57373",
"4 	c #4D2626",
"5 	c #8F4848",
"6 	c #FECDD1",
"7 	c #FFCDD2",
"8 	c #8E4848",
"9 	c #FFCDD1",
"0 	c #817616",
"a 	c #817816",
"b 	c #F2A0A3",
"c 	c #F1A0A3",
"d 	c #523637",
"e 	c #F2A1A3",
"f 	c #976466",
"g 	c #743A3A",
"h 	c #3C3031",
"i 	c #81686B",
"j 	c #BFA172",
"k 	c #EA686B",
"l 	c #CC5A5E",
"m 	c #827717",
"n 	c #FECDD2",
"o 	c #564547",
"p 	c #9F8083",
"q 	c #765E61",
"r 	c #827716",
"s 	c #C59FA2",
"t 	c #C49FA2",
"u 	c #B15959",
"v 	c #B05959",
"w 	c #817717",
"x 	c #F2A3A5",
"y 	c #F2A3A6",
"z 	c #F3A3A5",
"A 	c #B77448",
"B 	c #B77548",
"C 	c #252F6A",
"D 	c #2B377B",
"E 	c #2B367B",
"F 	c #58500F",
"G 	c #585110",
"H 	c #58510F",
"I 	c #866826",
"J 	c #A17634",
"K 	c #A27634",
"L 	c #B66630",
"M 	c #CF542B",
"N 	c #CF542C",
"O 	c #A62E24",
"P 	c #827718",
"Q 	c #827616",
"R 	c #3E50B5",
"S 	c #3F51B5",
"T 	c #3F50B5",
"U 	c #B65F25",
"V 	c #F44335",
"W 	c #F44336",
"X 	c #827617",
"Y 	c #B65E25",
"Z 	c #817716",
"` 	c #3F51B4",
" .	c #F34336",
"..	c #827817",
"+.	c #3562B9",
"@.	c #3462BA",
"#.	c #3463BA",
"$.	c #6C8236",
"%.	c #727C3B",
"&.	c #717B3B",
"*.	c #717C3B",
"=.	c #926D1B",
"-.	c #926D1C",
";.	c #956E1C",
">.	c #956E1B",
",.	c #C05A28",
"'.	c #978E3D",
").	c #978D3D",
"!.	c #1597C9",
"~.	c #00BBD4",
"{.	c #00BCD4",
"].	c #2196F3",
"^.	c #2095F3",
"/.	c #2096F3",
"(.	c #3F50B4",
"_.	c #00BCD3",
":.	c #56D2E2",
"<.	c #74BDF7",
"[.	c #837919",
"}.	c #FEEA3B",
"|.	c #F42345",
"1.	c #655C12",
"2.	c #655C11",
"3.	c #2A2707",
"4.	c #2B2707",
"5.	c #574F0F",
"6.	c #57500F",
"7.	c #141A3B",
"8.	c #235592",
"9.	c #2A74BF",
"0.	c #2A73BF",
"a.	c #3567C9",
"b.	c #545D81",
"c.	c #293577",
"d.	c #3E51B4",
"e.	c #FEEB3B",
"                                      . . . . . . . . . . . . . . . . . . . . . . .                                                                             ",
"                                      + + . . + . . + . + . . + . . + . + + + + + +                                                                             ",
"                                      + + + + . + + . + . + + . + + . + . + + + + +                                                                             ",
"                                      + + + + . + + . + . + + . + + . + . + + + + +                                                                             ",
"                                      @ @ @ @ # $ $ % $ & @ @ & @ @ @ @ @ @ @ @ @ @                                                                             ",
"                            . + . + + * * * * = - - ; - > * * > * * > * > * * * * * + + + + + + + + + +                                                         ",
"                            . + . + + * * * * = - - ; - > * * > * * > * > * * * * * + + + + + + + + + +                                                         ",
"                            + + + . + * * * > , ; ; ' ; * > > * > > * * * * * * * * + + + + + + + + + +                                                         ",
"                            . + . + + ) ) ! ! = - - ; - ~ { { ~ { * > * > * * * * * + + + + + + + + + +                                                         ",
"                            . + . + + ] ] ^ ^ / - - ; - ( _ _ ( _ : < : < < < : < < * * * * * * * * * [ + + + +                                                 ",
"                            . + . + + ] ] ^ ^ / - - ; - ( _ _ ( _ : < : < < < : < < * * * * * * * * * [ + + + +                                                 ",
"                            . + . + + ] ] ^ ^ / - - ; - ( _ _ ( _ : < : < < < : < < * * * * * * * * * [ + + + +                                                 ",
"                            . + . + + ] ] ^ ^ / - - ; - ( _ _ ( _ : < : < : < : < < * * * * * * * * * [ + + + +                                                 ",
"                  } } } } } } } } } } } } } } } } } } } } } } } } } } } } | : : : : : < : : : < : : : 1 * * * > + + + + +                                       ",
"                  } } } } } } } } } } } } } } } } } } } } } } } } } } } } | : : : : : : : : : : : : : 1 * * * * + + + + +                                       ",
"                  } } } } } } } } } } } } } } } } } } } } } } } } } } } } | < : < < < : < < < : < < < 1 * * * * + + + + +                                       ",
"                  } } } } } } } } } } } } } } } } } } } } } } } } } } } } | < : < < < : < < < : < < < 1 * * * * + + + + +                                       ",
"          } } } } } } } } } } } } } } } } } } } } } } } } } } } } } } } } } } } } } } } } } } : < < < : < < < : < < < : < + + + + +                             ",
"          } } } } } } } } } } } } } } } } } } } } } } } } } } } } } } } } } } } } } } } } } } : < < < : < < < : < < < : < + + + + +                             ",
"          } } } } } } } } } } } } } } } } } } } } } } } } } } } } } } } } } } } } } } } } } } : : : : : : : : : : : : : : + + + + +                             ",
"          } } } } } } } } } } } } } } } } } } } } } } } } } } } } } } } } } } } } } } } } } } : < < < : < < < : < < < : < + + + + +                             ",
"                                      2 2 2 3 4 } } } } 2 3 3 2 3 } } } } 5 2 2 2 2 } } } } } } } } } } } } } } 6 6 6 7 6 + + + + +                             ",
"                                      2 2 3 3 4 } } } } 2 3 3 2 3 } } } } 8 2 2 2 2 } } } } } } } } } } } } } } 6 6 6 9 6 + + + + +                             ",
"                                      2 2 3 3 4 } } } } 2 3 3 2 3 } } } } 8 2 2 2 2 } } } } } } } } } } } } } } 6 6 6 9 6 + + + + +                             ",
"                                      2 2 2 3 4 } } } } 2 3 3 2 3 } } } } 5 2 2 2 2 } } } } } } } } } } } } } } 6 6 6 7 6 + + + + +                             ",
"                  0 0 a 0 a a 0 a 0 a b b b c d } } } } e c c e c } } } } f e b e e g g g g g } } } } h i i i i j j j j j k k k k l } } } }                     ",
"                  m m 0 m 0 0 0 0 m 0 n n 7 7 o } } } } n 7 7 n 7 } } } } p 6 n 6 6 2 2 2 2 2 } } } } q 6 6 n 7 r r r r r 6 6 n 6 s } } } }                     ",
"                  m m 0 m 0 0 m 0 m m n n 7 7 o } } } } n 7 7 n 7 } } } } p 6 6 6 6 2 3 2 2 2 } } } } q 6 6 6 7 r r r r r 6 6 6 6 t } } } }                     ",
"                  m m 0 m 0 0 m 0 m m n n 7 7 o } } } } n 7 7 n 7 } } } } p 6 6 6 6 2 3 2 2 2 } } } } q 6 6 6 7 r r r r r 6 6 6 6 t } } } }                     ",
"                  m m 0 m 0 0 m 0 m 0 n n 7 7 o } } } } n 7 7 n 7 } } } } p 6 n 6 6 2 3 2 2 2 } } } } q 6 6 6 7 r r r r r 6 6 6 6 s } } } }                     ",
"          0 m 0 m n n 7 n 7 7 n 7 n n 7 7 n n 7 n n 7 n 7 n n 7 n n 7 n 7 7 7 7 7 7 } } } } } } } } } q 7 7 7 n m m m 0 m 3 3 3 3 u } } } }                     ",
"          0 0 0 0 7 7 n 7 n n n n 7 7 n n 7 7 n n 7 n 7 n 7 7 n 7 7 n n n n 6 n 6 6 } } } } } } } } } q 6 6 n n r r r r r 2 2 2 2 u } } } }                     ",
"          m 0 m 0 7 7 n 7 n n 7 n 7 7 n n 7 7 n 7 7 n 7 n 7 7 n 7 7 n 7 n 6 6 6 6 6 } } } } } } } } } q 6 6 6 7 r r r r r 2 2 2 2 v } } } }                     ",
"          0 m 0 m n n 7 n 7 7 n 7 n n 7 7 n n 7 n n 7 n 7 n n 7 n n 7 n 7 7 7 7 7 7 } } } } } } } } } q 7 7 7 n m m m r m 3 3 3 3 u } } } }                     ",
"          m 0 m 0 3 3 2 3 2 2 3 2 3 2 2 2 2 3 2 3 3 2 3 2 3 3 2 3 } } } } p 6 n 6 6 6 7 6 6 6 } } } } q 6 6 6 7 2 2 2 2 2 } } } } } } } } }                     ",
"          0 m 0 m 2 2 3 2 3 3 2 3 2 2 2 2 2 2 3 2 2 3 2 3 2 2 3 2 } } } } p 7 7 7 7 7 n 7 7 7 } } } } q 7 7 7 n 3 3 3 2 3 } } } } } } } } }                     ",
"          0 w 0 w 2 2 3 2 2 2 2 2 2 2 2 2 2 2 2 2 2 2 2 3 2 2 3 2 } } } } p 7 n 7 7 7 n 7 7 7 } } } } q 7 7 7 n 3 3 3 2 3 } } } } } } } } }                     ",
"          m 0 m 0 3 3 2 3 2 2 3 2 3 3 2 2 3 3 2 3 3 2 3 2 3 3 2 3 } } } } p 6 6 6 6 6 7 6 6 6 } } } } q 6 6 6 7 2 2 2 2 2 } } } } } } } } }                     ",
"                  } } } } } } } } } } } } } } } } } } } } } } } } } } } } } } } } } 7 n 7 7 7 n 7 7 7 x 3 3 3 2 } } } } } } } } } }                             ",
"                  } } } } } } } } } } } } } } } } } } } } } } } } } } } } } } } } } 7 n 7 7 7 n 7 7 7 y 3 3 3 2 } } } } } } } } } }                             ",
"                  } } } } } } } } } } } } } } } } } } } } } } } } } } } } } } } } } 6 7 6 6 6 7 6 6 6 z 2 2 2 3 } } } } } } } } } }                             ",
"                  } } } } } } } } } } } } } } } } } } } } } } } } } } } } } } } } } 6 7 6 6 6 7 6 6 6 z 2 2 2 3 } } } } } } } } } }                             ",
"                            } } } } } } } } } } } } } } } } } } } } } } } 5 2 2 2 2 2 3 2 2 2 3 2 2 2 A r r r m } } } } }                                       ",
"                            } } } } } } } } } } } } } } } } } } } } } } } 5 3 2 3 3 3 2 3 3 3 2 3 3 3 A m m r r } } } } }                                       ",
"                            } } } } } } } } } } } } } } } } } } } } } } } 5 3 2 3 3 3 2 3 3 3 2 3 3 3 B m m m 0 } } } } }                                       ",
"                            } } } } } } } } } } } } } } } } } } } } } } } 5 2 2 2 2 2 3 2 2 2 3 2 2 2 A r r r m } } } } }                                       ",
"                                              C D D E D F G G F G G F H F I J J J J J K J J J K J J J L M M M N O O O O O r r r r r r P r r r P r r r r Q r Q   ",
"                                              R S S T S 0 m m 0 m m 0 m 0 r r r r r r m r r r m r r r U V V V W V V V V V r r r r r r m r r r m r r r r X r X m ",
"                                              R T T T T 0 0 0 0 0 0 0 0 0 r r r r r r r r r r r r r r Y V V W W V V V W V r r r r r r r r r r Z r r r m m m m m ",
"                                              R T T ` T m 0 0 m 0 0 m 0 m m m r m m m 0 m m m 0 m m m Y W W W  .W W W  .W m m m m m m 0 m m m 0 m m m m m m m ..",
"                                              +.@.#.@.@.$.$.$.$.$.%.&.*.*.%.%.%.%.%.=.-.=.=.=.;.>.>.>.,.V V V W V V V W V '.'.).'.'.'.).'.'.'.).'.'.).r m m m m ",
"                                      T T S S !.~.~.{.~.{.~.~.{.~.].^.].^.].].].].].* > * * * W V V V W V V V W V V V V V ^ ^ ^ ^ ^ ^ ] ^ ^ ^ ] ^ ^ ^ r X r X m ",
"                                      T T S S !.~.~.{.~.{.~.~.{.~.].^.].^.].].].].].* > * * * W V V V W V V V W V V V V V ^ ^ ^ ^ ^ ^ ] ^ ^ ^ ] ^ ^ ^ r X r X m ",
"                                      T T T S !.{.~.{.~.{.~.~.{.~./.^.^.^.].].].].].* * * * * W V V V W V V W W V V V W V ^ ^ ^ ^ ^ ^ ] ^ ^ ^ ] ^ ^ ^ m m m m m ",
"                                      (.(.T T !.{.{._.{._.{.{._.{.^.].^.].].].^.].].> * > > >  .W W W  .W W W  .W W W  .W ] ] ] ] ] ] ^ ] ] ] ^ ] ] ] m m m m ..",
"          } } } } } } } } } T T T S T ^ ^ ] ] :.{.~.{.~.^ ] ] ^ ] ] ^ ] ^ <.].].].].].].].].].W V V V W V V V W V V V W V ^ ^ ^ ^ ^ ^ ] ^ ^ [.m r r r           ",
"          } } } } } } } } } T S T S T ^ ^ ] ] :.~.~.{.~.^ ] ] ^ ] ] ^ ] ^ <.].].].].].].].].].W V V V W V V V W V V V W V ^ ^ ^ ^ ^ ^ ] ^ ^ [.m r r r           ",
"          } } } } } } } } } ` T ` T T ] ] ^ ^ :.{.{._.{.] ^ ^ ] ^ ^ ] ^ ] <.].].].].].^.].].]. .W W W  .W W W  .W W W W W ] ] ] ] ] ] ^ ] ] [.0 m m m           ",
"          } } } } } } } } } ` T T T T ] ] ^ ^ :.{.{._.{.] ^ ^ ] ^ ^ ] ^ ] <.].].].].].].].].]. .W W W  .W W W  .W W W W W ] ] ] ] ] ] ^ ] ] [.0 m m m           ",
"} } } } } } } } } }.}.( }.( } } } } } ] ] ^ ^ :.{.{._.{.] ^ ^ ] ^ ^ ] ^ ] <.]./.].].].^.].].]. .W W W |.< < < < < < < < < m m m m m m 0 m m                     ",
"} } } } } } } } } ( ( }.( }.} } } } } ^ ^ ] ] :.{.~.{.{.^ ] ] ^ ] ] ^ ] ^ <.].].].].].].].].].W V V V |.: : < < : : : < : r r r r r r m r r                     ",
"} } } } } } } } } ( ( }.( }.} } } } } ^ ^ ] ] :.~.~.{.~.^ ] ] ^ ] ] ^ ] ^ <.].].].].].].].].].W V V V |.: : : < : : : < : r r r r r r m r r                     ",
"} } } } } } } } } }.}.( }.( } } } } } ] ] ^ ^ :.{.{._.{.] ^ ^ ] ^ ^ ] ^ ] <.].].].].].^.].].]. .W W W |.< < < < < < < < < m m m m m m 0 m m                     ",
"} } } } } } } } } 0 0 m 0 m } } } } } T T T T !.{.{._.{.].^.^.].^.^.].^.].].].].].].].^.].].].^.].].].^.].].].^.m m m r m m m m m 1.} } } }                     ",
"} } } } } } } } } m m 0 m 0 } } } } } T T T S !.~.~.{.~.^.].].^.].].^.].^.].].].].].].].].].].].].].].].].].].].r r r r r r r r r 2.} } } }                     ",
"} } } } } } } } } m m 0 m 0 } } } } } T T S S !.~.~.{.~.^.].].^.].].^.].^.].].].].].].].].].].].].].].].].].].].r r r r r r r r r 2.} } } }                     ",
"} } } } } } } } } m m 0 m 0 } } } } } T T S S !.~.~.{.~.^.].].^.].].^.].^.].].].].].].].].].].].].].].].].].].].r r r r r r r r r 2.} } } }                     ",
"          } } } } 3.3.4.3.4.5.6.5.6.5.7.7.7.7.8.9.9.0.9.].^.^.].^.^.].^.].].].].].].]./.].].].a.a.a.a.a.a.a.a.a.b.b.b.b.b.m m m m 2.} } } }                     ",
"          } } } } } } } } } m 0 m 0 0 } } } } c.T T ` T ].^.^.].^.^.].^.].].].].].].].^.].].].T S S S T S S S T S S S S S m m m m 1.} } } }                     ",
"          } } } } } } } } } 0 m 0 m w } } } } c.S S T S ^.].].^.].].^.].^.].].].].].].].].].].S d.d.d.S d.d.d.S d.d.d.S d.r r r r 2.} } } }                     ",
"          } } } } } } } } } 0 m 0 m m } } } } c.S S T S ^.].].^.].].^.].^.].].].].].].].].].].S d.d.d.S d.d.d.S d.d.d.` d.r r r r 2.} } } }                     ",
"          } } } } } } } } } 0 m 0 m m } } } } c.S S T S ^.].].^.].].^.].^.].].].].].].].].].].S d.d.d.S d.d.d.S d.d.d.` d.r r r r 2.} } } }                     ",
"          } } } } } } } } } m 0 w 0 0 } } } }           ` T T ` T T (.T T S S S S S S S S S S           } } } } ( ( ( e.( m m m m 2.} } } }                     ",
"          } } } } } } } } } m 0 m 0 0 } } } }           ` T T ` T T ` T ` S S S S S S T S S S           } } } } ( ( ( e.( m m m m 1.} } } }                     ",
"          } } } } } } } } } 0 m 0 m w } } } }           T S S T S S T S T ` d.S d.d.d.S d.d.d.          } } } } _ _ _ ( _ r r r r 2.} } } }                     ",
"          } } } } } } } } } 0 m 0 m 0 } } } }           T S S T S S T S T S d.S d.d.d.S d.d.d.          } } } } _ _ _ ( _ r r r r 2.} } } }                     ",
"                  } } } } } } } } } }                                                                           } } } } } } } } } }                             ",
"                  } } } } } } } } } }                                                                           } } } } } } } } } }                             ",
"                  } } } } } } } } } }                                                                           } } } } } } } } } }                             ",
"                  } } } } } } } } } }                                                                           } } } } } } } } } }                             "};
